<?xml version="1.0" encoding="UTF-8"?>
<svg id="Calque_2" data-name="Calque 2" xmlns="http://www.w3.org/2000/svg" viewBox="0 0 60.13 60.13">
  <defs>
    <style>
      .cls-1 {
      fill: #fff;
      stroke: #fff;
      stroke-miterlimit: 10;
      stroke-width: 4px;
      }
    </style>
  </defs>
  <g id="Calque_1-2" data-name="Calque 1">
    <path class="cls-1"
      d="M50.1,2.48l-20.03,20.03L10.04,2.48c-.64-.64-1.69-.64-2.32,0L2.48,7.71c-.64.64-.64,1.69,0,2.32l20.03,20.03L2.48,50.1c-.64.64-.64,1.69,0,2.32l5.23,5.23c.64.64,1.69.64,2.32,0l20.03-20.03,20.03,20.03c.64.64,1.69.64,2.32,0l5.23-5.23c.64-.64.64-1.69,0-2.32l-20.03-20.03,20.03-20.03c.64-.64.64-1.69,0-2.32l-5.23-5.23c-.64-.64-1.69-.64-2.32,0Z" />
  </g>
</svg>