<?xml version="1.0" encoding="UTF-8"?>
<svg id="Calque_2" xmlns="http://www.w3.org/2000/svg" version="1.1" viewBox="0 0 74.6 74.6">
  <!-- Generator: Adobe Illustrator 29.0.1, SVG Export Plug-In . SVG Version: 2.1.0 Build 192)  -->
  <defs>
    <style>
      .st0 {
        fill: #fff;
        stroke: #fff;
        stroke-miterlimit: 10;
        stroke-width: 4px;
      }
    </style>
  </defs>
  <g id="Calque_1-2">
    <path class="st0" d="M71,32h-28.3V3.6c0-.9-.7-1.6-1.6-1.6h-7.4c-.9,0-1.6.7-1.6,1.6v28.3H3.6c-.9,0-1.6.7-1.6,1.6v7.4c0,.9.7,1.6,1.6,1.6h28.3v28.3c0,.9.7,1.6,1.6,1.6h7.4c.9,0,1.6-.7,1.6-1.6v-28.3h28.3c.9,0,1.6-.7,1.6-1.6v-7.4c0-.9-.7-1.6-1.6-1.6Z"/>
  </g>
</svg>