<?xml version="1.0" encoding="UTF-8"?>
<svg id="Calque_2" data-name="Calque 2" xmlns="http://www.w3.org/2000/svg" viewBox="0 0 74.63 74.63">
  <defs>
    <style>
      .cls-1 {
        fill: #1d1d1b;
        stroke: #1d1d1b;
        stroke-miterlimit: 10;
        stroke-width: 4px;
      }
    </style>
  </defs>
  <g id="Calque_1-2" data-name="Calque 1">
    <path class="cls-1" d="M70.98,31.97h-28.33V3.64c0-.9-.74-1.64-1.64-1.64h-7.4c-.9,0-1.64.74-1.64,1.64v28.33H3.64c-.9,0-1.64.74-1.64,1.64v7.4c0,.9.74,1.64,1.64,1.64h28.33v28.33c0,.9.74,1.64,1.64,1.64h7.4c.9,0,1.64-.74,1.64-1.64v-28.33h28.33c.9,0,1.64-.74,1.64-1.64v-7.4c0-.9-.74-1.64-1.64-1.64Z"/>
  </g>
</svg>